HIERARCHY
ROOT pelvis
{
  OFFSET 0 100 0
  CHANNELS 6 Xposition Yposition Zposition Zrotation Xrotation Yrotation
  JOINT pelvis_right_femur
  {
    OFFSET -10.78128 -3.44521 -0.5502486
    CHANNELS 3 Zrotation Xrotation Yrotation
    JOINT right_femur_tibia
    {
      OFFSET -0.8047443 -44.0398 -0.1307829
      CHANNELS 3 Zrotation Xrotation Yrotation
      JOINT right_tibia_foot
      {
        OFFSET 3.006224 -47.83518 -5
        CHANNELS 3 Zrotation Xrotation Yrotation
        End Site
        {
          OFFSET 0 -5 15
        }
      }
    }
  }
  JOINT pelvis_left_femur
  {
    OFFSET 10.78128 -3.44521 -0.5502486
    CHANNELS 3 Zrotation Xrotation Yrotation
    JOINT left_femur_tibia
    {
      OFFSET 0.8047443 -44.0398 -0.1307829
      CHANNELS 3 Zrotation Xrotation Yrotation
      JOINT left_tibia_foot
      {
        OFFSET -4.370144 -48.10324 -4.275266
        CHANNELS 3 Zrotation Xrotation Yrotation
        End Site
        {
          OFFSET 0 -5 15
        }
      }
    }
  }
  JOINT pelvis_spine1
  {
    OFFSET 0 6.468898 -3.129235
    CHANNELS 3 Zrotation Xrotation Yrotation
    JOINT spine1
    {
      OFFSET 0 23.15396 4.99043
      CHANNELS 3 Zrotation Xrotation Yrotation
      JOINT spine2
      {
        OFFSET 0 20.79997 -5.064912
        CHANNELS 3 Zrotation Xrotation Yrotation
        JOINT neck
        {
          OFFSET 0 14.38658 9.616178
          CHANNELS 3 Zrotation Xrotation Yrotation
          End Site
          {
            OFFSET 0 20 0
          }
        }
      }
      JOINT right_manubrium
      {
        OFFSET -5.722621 16.35077 3.967754
        CHANNELS 3 Zrotation Xrotation Yrotation
        JOINT right_clavicle
        {
          OFFSET -13.16364 1.694482 -4.693211
          CHANNELS 3 Zrotation Xrotation Yrotation
          JOINT right_humerus
          {
            OFFSET -28.5034 -0.3100689 -2.792744
            CHANNELS 3 Zrotation Xrotation Yrotation
            JOINT right_radius
            {
              OFFSET -25.15693 0.02248979 -1.271978
              CHANNELS 3 Zrotation Xrotation Yrotation
              End Site
              {
                OFFSET -15 0 0
              }
            }
          }
        }
      }
      JOINT left_manubrium
      {
        OFFSET 5.722621 16.35077 3.967754
        CHANNELS 3 Zrotation Xrotation Yrotation
        JOINT left_clavicle
        {
          OFFSET 13.16364 1.694482 -4.693211
          CHANNELS 3 Zrotation Xrotation Yrotation
          JOINT left_humerus
          {
            OFFSET 29.39168 -1.063119 -2.237045
            CHANNELS 3 Zrotation Xrotation Yrotation
            JOINT left_radius
            {
              OFFSET 24.59957 -0.9528479 0.9047498
              CHANNELS 3 Zrotation Xrotation Yrotation
              End Site
              {
                OFFSET 15 -0 -0
              }
            }
          }
        }
      }
    }
  }
}
MOTION
Frames: 13
Frame Time: 0.0416666666667
0 103.5113 0 2.1421 -3.141596 0.1633258 0.8717313 -11.10427 7.767006 -0 38.54824 -0 -5.943183 -17.21235 -5.723567 -7.18248 13.5585 -23.93099 -0 5.01118 -0 -0.06161891 -20.52514 23.48957 -4.618781 -3.625862 3.527882 1.94687 7.630282 -7.617795 0.9923284 24.3057 7.051476 3.222111 -21.57077 8.306981 5.954505 -18.41183 10.68331 87.29254 35.27792 -21.91257 -0 0 14.0651 -8.462248 7.688604 5.339937 3.68808 -18.48994 -3.187588 -98.57807 41.46643 26.29666 0 0 -20.67714 -11.81523 16.15761 28.74976
0.02926009 103.6323 1.385619 1.647959 -2.530755 0.1964107 1.654888 -13.59882 7.825784 -0 38.34684 -0 -5.897324 -16.05215 -5.641212 -6.775825 14.29185 -24.00409 -0 4.93617 -0 -0.2638755 -21.17883 23.05156 -4.309633 -3.25908 3.198451 2.074843 7.462649 -7.71225 1.086835 23.98811 7.172687 3.266074 -22.19322 8.584499 6.139799 -18.15941 10.71829 87.12219 35.63827 -21.75184 -0 0 14.05344 -8.399812 8.205531 5.413517 3.878708 -18.37009 -2.921073 -98.2058 41.24528 25.744 0 0 -20.59302 -11.27862 16.37542 28.13181
0.1886998 103.9176 3.534234 0.4584569 -1.487771 0.328642 2.764629 -17.82823 5.841884 -0 37.84753 -0 -7.21379 -8.699467 -3.071633 -5.94644 12.88341 -22.62357 -0 6.0722 -0 0.7494347 -20.51323 21.88867 -3.311621 -2.326912 2.690132 1.989851 8.313565 -7.415369 1.026544 22.99746 8.041863 4.271765 -23.48225 9.005939 6.552212 -18.07247 11.32594 86.25382 36.26022 -19.9036 -0 0 13.99264 -11.31789 10.18509 6.474106 5.115043 -19.19456 -2.940101 -95.51451 34.59253 23.20481 0 0 -17.71588 -3.575921 18.33716 18.3305
0.426404 104.1931 6.230692 -0.2188664 -0.8270631 0.5743862 3.474113 -21.11065 4.456664 -0 36.02618 -0 -7.824316 -5.070129 -1.635909 -5.476984 12.23562 -21.36482 -0 7.41627 -0 1.349002 -20.11571 20.88041 -2.695396 -1.71883 2.447802 1.986962 8.759172 -7.323795 0.9755474 22.37001 8.502991 4.823815 -23.96137 9.168318 6.65446 -17.88382 11.63937 85.83989 36.37789 -19.07291 -0 0 13.75562 -12.89646 11.21791 6.963935 5.969125 -19.8943 -2.989405 -93.68817 30.21299 21.26366 0 0 -16.9946 1.592819 18.6675 11.82652
0.7447746 104.3854 9.513265 -0.7054612 -0.2358729 0.8802992 3.978329 -24.37131 2.87382 -0 32.71901 -0 -8.250386 -2.360653 -0.2919561 -5.177468 11.67056 -19.78236 -0 9.218369 -0 2.262522 -19.57194 19.90788 -2.199354 -1.236578 2.371261 2.01039 9.220747 -7.298046 0.8998564 21.78656 8.856949 5.286796 -24.12851 9.200557 6.553853 -17.66781 11.89123 85.6487 36.25262 -18.6037 -0 0 13.26875 -14.30415 11.98598 7.291958 6.908517 -20.83714 -3.071007 -91.72558 25.40961 18.98741 0 0 -17.25275 7.182218 18.20078 4.773559
1.141851 104.4264 13.41386 -0.8870882 -0.08425014 1.198778 3.972147 -26.55821 0.8073521 -0 28.61441 -0 -8.810933 0.06961452 1.078601 -5.077845 11.04882 -17.81562 -0 11.48422 -0 3.433562 -18.76638 19.08736 -1.879043 -0.9821861 2.425943 1.947307 9.853949 -7.254767 0.7913342 21.40708 9.060568 5.674503 -23.85087 8.997194 6.129571 -17.50943 12.0993 85.86998 35.59301 -18.46479 -0 0 12.39557 -15.98629 12.4384 7.621357 7.859495 -22.08547 -3.350886 -89.83296 20.2158 16.56095 0 0 -18.16122 12.84448 17.08477 -2.524064
1.597246 104.2851 17.96445 -0.7340281 -0.550767 1.476146 3.484541 -27.42965 -1.755925 -0 23.98911 -0 -9.59113 2.369145 2.387881 -5.149054 10.5621 -15.43514 -0 14.2931 -0 4.83568 -17.7507 18.47617 -1.738861 -0.9951826 2.551513 1.765119 10.68937 -7.191577 0.6773856 21.31176 9.02843 5.925899 -23.06015 8.519796 5.281198 -17.40132 12.24996 86.65211 34.16115 -18.70401 -0 0 11.04045 -18.0068 12.533 7.94377 8.760841 -23.64873 -3.888012 -88.06002 14.77729 13.91306 0 0 -19.69193 18.29243 15.4567 -9.803282
2.055847 103.986 23.14281 -0.3092133 -1.616039 1.673645 2.832671 -27.04451 -4.327817 -0 19.25726 -0 -10.49116 4.30628 3.259013 -5.325409 10.60361 -12.8673 -0 17.54192 -0 6.048435 -16.81335 18.03682 -1.736978 -1.271549 2.667858 1.510528 11.57313 -7.169836 0.6095192 21.53673 8.672234 5.915769 -21.89946 7.82892 3.969756 -17.33723 12.2886 88.10463 31.86803 -19.44415 -0 0 9.273181 -19.98327 12.19069 8.143753 9.39864 -25.33025 -4.638534 -86.56814 10.19856 11.27481 0 0 -21.86965 22.33162 13.8584 -15.51829
2.446096 103.6222 28.87017 0.2031385 -3.061519 1.77085 2.431693 -25.74593 -6.302128 -0 15.07826 -0 -11.3739 5.76363 3.423104 -5.508863 11.28786 -10.43082 -0 21.12144 -0 6.626539 -16.12191 17.65286 -1.740408 -1.727598 2.722536 1.252012 12.34126 -7.233175 0.6272949 21.99887 8.01609 5.590861 -20.68578 7.086174 2.296384 -17.35067 12.20233 90.10728 28.88203 -20.59648 -0 0 7.392769 -21.52359 11.48344 8.146981 9.584557 -26.84646 -5.499994 -85.4173 7.441568 9.059877 0 0 -24.37273 24.1623 13.00554 -18.46282
2.708849 103.343 35.01035 0.547294 -4.536368 1.748997 2.568728 -24.03683 -7.236355 -0 12.27873 -0 -12.10512 6.671202 2.85755 -5.557917 12.30841 -8.487987 -0 25.02034 -0 6.270837 -15.59258 17.15294 -1.56791 -2.200767 2.708057 1.043777 12.87035 -7.375241 0.7340584 22.51757 7.225866 5.019272 -19.75883 6.494605 0.5556544 -17.46838 12.03028 92.25832 25.72917 -21.85036 -0 0 5.882353 -22.40166 10.69004 7.974494 9.256168 -27.88828 -6.325917 -84.65456 6.898718 7.789785 0 0 -26.52003 23.6512 13.24017 -18.22519
2.818643 103.3048 41.39765 0.5530635 -5.74273 1.585 3.244305 -22.3135 -7.120377 -0 11.25552 -0 -12.63901 6.968715 1.824805 -5.352408 13.05977 -7.240701 -0 29.4457 -0 5.100681 -14.9001 16.46012 -1.125325 -2.531885 2.670694 0.9029475 13.15615 -7.549566 0.8859199 22.91266 6.52006 4.38415 -19.25993 6.158107 -0.879189 -17.6623 11.84794 94.06524 23.11583 -22.87245 -0 0 5.112871 -22.66588 10.15813 7.714743 8.553397 -28.31725 -6.983165 -84.35471 8.026037 7.723963 0 0 -27.65169 21.515 14.18299 -15.61494
2.782373 103.6079 47.88341 0.2719149 -6.635713 1.270919 4.211998 -20.59344 -6.350732 -0 11.56846 -0 -13.06994 6.711938 0.7070174 -4.899011 13.00716 -6.566226 -0 34.60321 -0 3.674728 -13.74473 15.73788 -0.5044099 -2.672061 2.688043 0.8092349 13.34264 -7.705994 1.025595 23.12005 6.00244 3.872539 -19.06163 5.999056 -1.812856 -17.89398 11.72993 95.26559 21.43436 -23.50236 -0 0 5.079503 -22.57828 10.02642 7.447551 7.727935 -28.29012 -7.449642 -84.52222 9.650828 8.630741 0 0 -27.57078 19.01245 15.14692 -12.32006
2.623445 104.273 54.35861 -0.1089878 -7.344608 0.8182852 5.203347 -18.65691 -5.354166 -0 12.32366 -0 -13.51215 6.104565 -0.2421522 -4.312068 11.95529 -6.156359 -0 40.27372 -0 2.59215 -12.11556 15.25618 0.1172212 -2.686707 2.839838 0.7376609 13.61997 -7.823204 1.1241 23.16507 5.620443 3.542192 -19.00099 5.868849 -2.33782 -18.21972 11.71675 95.93876 20.52312 -23.76355 -0 0 5.55539 -22.37778 10.14288 7.212128 6.955084 -28.10343 -7.806616 -85.02565 10.83013 10.09054 0 0 -26.57458 17.10809 15.72733 -9.698671
